<svg xmlns="http://www.w3.org/2000/svg" viewBox="0 0 120 120" role="img" aria-label="Family Feud icon">
  <defs>
    <linearGradient id="bg" x1="0" y1="0" x2="1" y2="1">
      <stop offset="0%" stop-color="#1d2a52"/>
      <stop offset="100%" stop-color="#1e4ed8"/>
    </linearGradient>
  </defs>
  <rect width="120" height="120" rx="24" fill="url(#bg)"/>
  <path d="M25 40a13 13 0 0 1 13-13h22a13 13 0 0 1 13 13v10a13 13 0 0 1-13 13H45l-11 10v-10H38a13 13 0 0 1-13-13Z" fill="#ffffff"/>
  <path d="M63 48h26a11 11 0 0 1 11 11v8a11 11 0 0 1-11 11H78l-9 8v-8h-6a11 11 0 0 1-11-11v-8a11 11 0 0 1 11-11Z" fill="#ffffff" opacity="0.22"/>
  <circle cx="47" cy="44" r="5" fill="#1e4ed8"/>
  <circle cx="58" cy="44" r="5" fill="#00bcd4"/>
  <circle cx="74" cy="58" r="4" fill="#ffffff" opacity="0.95"/>
</svg>