<svg xmlns="http://www.w3.org/2000/svg" viewBox="0 0 120 120" role="img" aria-label="Word Trial icon">
  <defs>
    <linearGradient id="bg" x1="0" y1="0" x2="1" y2="1">
      <stop offset="0%" stop-color="#173ea8"/>
      <stop offset="100%" stop-color="#7b8cff"/>
    </linearGradient>
  </defs>
  <rect width="120" height="120" rx="24" fill="url(#bg)"/>
  <path d="M28 40h38a10 10 0 0 1 10 10v20a10 10 0 0 1-10 10H50l-15 12v-12H28a10 10 0 0 1-10-10V50a10 10 0 0 1 10-10Z" fill="#ffffff" opacity="0.95"/>
  <path d="M53 57l10 10 19-19" fill="none" stroke="#1e4ed8" stroke-width="6" stroke-linecap="round" stroke-linejoin="round"/>
  <rect x="63" y="64" width="31" height="20" rx="8" fill="#00bcd4" opacity="0.9"/>
  <path d="M73 68h11M73 74h7" stroke="#ffffff" stroke-width="4" stroke-linecap="round"/>
</svg>